<?xml version="1.0" encoding="utf-8"?>
<!-- Generator: Adobe Illustrator 14.0.0, SVG Export Plug-In . SVG Version: 6.00 Build 43363)  -->
<!DOCTYPE svg PUBLIC "-//W3C//DTD SVG 1.1//EN" "http://www.w3.org/Graphics/SVG/1.1/DTD/svg11.dtd">
<svg version="1.1" id="Layer_1" xmlns="http://www.w3.org/2000/svg" xmlns:xlink="http://www.w3.org/1999/xlink" x="0px" y="0px"
	 width="200px" height="226px" viewBox="0 0 200 226" enable-background="new 0 0 200 226" xml:space="preserve">
<path id="Google_Famiy_Link_Logo_2" fill="#3B78E7" d="M193.285,70.62L128.14,6.478c-8.771-8.636-22.857-8.636-31.628,0
	L31.366,70.62c-7.958,7.836-8.965,20.316-2.364,29.324l65.146,88.899c1.394,1.903,4.626,6.229,4.754,6.317
	c-1.245,2.84-2.68,4.107-5.176,5.889c-2.803,2.004-6.228,3.195-9.936,3.195c-7.427,0-13.731-4.732-16.102-11.338
	c-0.117-0.332-0.232-0.662-0.332-1.003c-3.18-9.437-9.792-17.304-18.353-22.116c-5.783-3.253-12.45-5.117-19.547-5.117
	c-11.646,0-22.142,5.002-29.456,12.965l16.828,13.896c3.274-3.156,7.721-5.105,12.628-5.105c7.917,0,14.635,5.056,17.143,12.104
	c0.12,0.332,0.235,0.665,0.334,1.007c3.208,9.496,9.99,17.359,18.748,21.98c3.215,1.696,6.7,2.948,10.367,3.692
	c2.502,0.51,5.089,0.791,7.741,0.791c10.682,0,20.371-4.328,27.407-11.314c2.837-2.818,84.454-114.742,84.454-114.742
	C202.25,90.936,201.244,78.456,193.285,70.62z M121.654,195.996c0-0.002,0.002-0.002,0.002-0.002S121.654,195.994,121.654,195.996z
	 M112.326,177.533L45.49,86.328l66.836-65.807l66.835,65.807L112.326,177.533z"/>
</svg>
